<svg xmlns="http://www.w3.org/2000/svg" viewBox="0 0 27.84 16.51">
    <defs>
        <style>.cls-1{fill:#ccc;}</style>
    </defs>
    <title>Asset 4</title>
    <g id="Layer_2" data-name="Layer 2">
        <g id="Desktop">
            <path class="cls-1"
                  d="M27.84,2.6A2.65,2.65,0,0,0,26.62.37a2.9,2.9,0,0,0-3.4.44l-9.3,9.3L4.62.81A2.91,2.91,0,0,0,1.21.37,2.64,2.64,0,0,0,0,2.6,2.68,2.68,0,0,0,.77,4.48L12,15.73a2.64,2.64,0,0,0,1.83.78H14a2.6,2.6,0,0,0,1.83-.78L27.06,4.48A2.65,2.65,0,0,0,27.84,2.6Z"/>
        </g>
    </g>
</svg>