<svg xmlns="http://www.w3.org/2000/svg" viewBox="0 0 56.06 44.19">
    <defs>
        <style>.cls-1{fill:#ccc;}</style>
    </defs>
    <title>Asset 5pen</title>
    <g id="Layer_2" data-name="Layer 2">
        <g id="Layer_1-2" data-name="Layer 1">
            <path class="cls-1"
                  d="M25.16,39.2a58.57,58.57,0,0,1-6.42,2.46A18.49,18.49,0,0,1,12.06,43a5.81,5.81,0,0,1-4.67-2.62,2.68,2.68,0,0,0-2.23-1.61,6.56,6.56,0,0,0-3,.88c-.71.34-1.34-.72-.62-1.06C3.22,37.75,5.29,36.91,7,38c.84.55,1.16,1.45,1.77,2.18a4.4,4.4,0,0,0,2.48,1.4c2.22.48,4.6-.36,6.7-1a59.6,59.6,0,0,0,6.56-2.47C25.26,37.82,25.88,38.88,25.16,39.2Z"/>
            <path class="cls-1"
                  d="M24.54,38.14c-1.78.79-3.6,1.5-5.45,2.11a29.41,29.41,0,0,1-5.22,1.42,6,6,0,0,1-4.37-.85C8.39,40,8,38.58,6.74,37.9a4,4,0,0,0-2.53-.34A6.5,6.5,0,0,0,3,37.9a8.07,8.07,0,0,0-1.29.56l.48,0a.4.4,0,0,1,.24.34l0,.15c-.43.56-.47.73-.12.52a8.38,8.38,0,0,0,1-.42,4.49,4.49,0,0,1,2.26-.34,2.22,2.22,0,0,1,1.5,1.15,7.36,7.36,0,0,0,1.65,1.91A7.21,7.21,0,0,0,13.9,42.9a30.7,30.7,0,0,0,6-1.61c1-.35,2.06-.73,3.07-1.14.53-.21,1.06-.44,1.59-.67l.21-.09c.27-.09.29-.12.07-.08a.54.54,0,0,1-.47-.26.72.72,0,0,1,.21-.91,1.23,1.23,0,0,0,1.24,2.12,1.76,1.76,0,0,0,.64-2.5,2,2,0,0,0-2.72-.59,62.1,62.1,0,0,1-6.36,2.35c-1.89.58-4,1.37-6,.83A3.12,3.12,0,0,1,9.43,39a5.93,5.93,0,0,0-2-2.17c-2-1.05-4.18-.38-6.11.5A1.82,1.82,0,0,0,.14,39.7a1.89,1.89,0,0,0,2.35,1.09c.87-.28,1.71-1,2.69-.84.62.08.89.64,1.25,1.16A7,7,0,0,0,11,44.05a15.75,15.75,0,0,0,7.43-1,69.36,69.36,0,0,0,7.35-2.79,1.23,1.23,0,0,0,.44-1.68A1.25,1.25,0,0,0,24.54,38.14Z"/>
            <path class="cls-1"
                  d="M55.76,5,37,32.91l0,0-.11.09-6.29,3.69a.65.65,0,0,1-1-.66l1.07-7.22,0-.13,0,0L49.43.76A1.73,1.73,0,0,1,51.82.29L55.3,2.64A1.71,1.71,0,0,1,55.76,5Z"/>
        </g>
    </g>
</svg>