<?xml version="1.0" encoding="UTF-8" standalone="no"?><!DOCTYPE svg PUBLIC "-//W3C//DTD SVG 1.1//EN" "http://www.w3.org/Graphics/SVG/1.1/DTD/svg11.dtd"><svg width="100%" height="100%" viewBox="0 0 1396 336" version="1.1" xmlns="http://www.w3.org/2000/svg" xmlns:xlink="http://www.w3.org/1999/xlink" xml:space="preserve" xmlns:serif="http://www.serif.com/" style="fill-rule:evenodd;clip-rule:evenodd;stroke-linejoin:round;stroke-miterlimit:2;"><path d="M293.665,95.795l-58.625,0l0,232.785l59.572,-0l-0,-135.199c-0,-32.861 21.77,-48.822 52.058,-48.822l35.021,-0l0,-49.702l-24.609,-0c-29.815,-0 -49.692,8.908 -58.684,33.759l-4.733,0l0,-32.821Z" style="fill:#ff4f3b;fill-rule:nonzero;"/><path d="M628.762,215.004c-0,19.404 -3.313,36.538 -9.939,51.404c-6.625,14.866 -15.617,27.384 -26.975,37.555c-11.358,10.172 -24.373,17.917 -39.044,23.238c-14.671,5.32 -30.052,7.98 -46.143,7.98c-16.091,0 -31.472,-2.66 -46.143,-7.98c-14.671,-5.321 -27.685,-13.066 -39.043,-23.238c-11.359,-10.171 -20.351,-22.689 -26.976,-37.555c-6.626,-14.866 -9.939,-32 -9.939,-51.404l0,-5.633c0,-19.091 3.313,-36.069 9.939,-50.934c6.625,-14.866 15.617,-27.463 26.976,-37.791c11.358,-10.327 24.372,-18.151 39.043,-23.472c14.671,-5.32 30.052,-7.98 46.143,-7.98c16.091,-0 31.472,2.66 46.143,7.98c14.671,5.321 27.686,13.145 39.044,23.472c11.358,10.328 20.35,22.925 26.975,37.791c6.626,14.865 9.939,31.843 9.939,50.934l-0,5.633Zm-122.101,63.844c8.519,0 16.564,-1.408 24.136,-4.225c7.572,-2.816 14.198,-6.885 19.877,-12.205c5.679,-5.321 10.175,-11.814 13.488,-19.482c3.313,-7.668 4.969,-16.352 4.969,-26.054l0,-9.389c0,-9.702 -1.656,-18.386 -4.969,-26.054c-3.313,-7.667 -7.809,-14.161 -13.488,-19.482c-5.679,-5.32 -12.305,-9.389 -19.877,-12.205c-7.572,-2.817 -15.617,-4.225 -24.136,-4.225c-8.518,-0 -16.564,1.408 -24.136,4.225c-7.572,2.816 -14.198,6.885 -19.877,12.205c-5.679,5.321 -10.175,11.815 -13.488,19.482c-3.313,7.668 -4.969,16.352 -4.969,26.054l0,9.389c0,9.702 1.656,18.386 4.969,26.054c3.313,7.668 7.809,14.161 13.488,19.482c5.679,5.32 12.305,9.389 19.877,12.205c7.572,2.817 15.618,4.225 24.136,4.225Z" style="fill:#ff4f3b;fill-rule:nonzero;"/><path d="M816.646,294.809c-6.31,14.709 -15.145,25.115 -26.503,31.218c-11.358,6.103 -24.609,9.154 -39.754,9.154c-14.197,0 -27.527,-2.66 -39.99,-7.98c-12.462,-5.321 -23.426,-13.145 -32.891,-23.472c-9.466,-10.328 -16.959,-22.846 -22.48,-37.556c-5.522,-14.709 -8.282,-31.452 -8.282,-50.23l-0,-7.511c-0,-18.465 2.682,-35.052 8.045,-49.761c5.364,-14.709 12.62,-27.227 21.77,-37.555c9.15,-10.328 19.798,-18.23 31.945,-23.707c12.147,-5.477 25.162,-8.215 39.044,-8.215c16.722,-0 30.21,2.817 40.464,8.45c10.253,5.633 18.378,14.396 24.372,26.289l8.519,-0l-0,-28.167l59.631,0l-0,162.427c-0,9.389 4.259,14.083 12.778,14.083l8.992,0l-0,56.333l-40.701,0c-10.727,0 -19.482,-3.13 -26.266,-9.389c-6.783,-6.259 -10.175,-14.396 -10.175,-24.411l-8.518,0Zm-53.005,-15.961c17.353,0 31.235,-5.711 41.646,-17.134c10.412,-11.423 15.618,-26.993 15.618,-46.71l-0,-5.633c-0,-19.717 -5.206,-35.286 -15.618,-46.71c-10.411,-11.423 -24.293,-17.134 -41.646,-17.134c-17.353,-0 -31.235,5.711 -41.647,17.134c-10.412,11.424 -15.618,26.993 -15.618,46.71l0,5.633c0,19.717 5.206,35.287 15.618,46.71c10.412,11.423 24.294,17.134 41.647,17.134Z" style="fill:#ff4f3b;fill-rule:nonzero;"/><path d="M1099.18,294.809l-8.518,0c-2.525,5.321 -5.601,10.406 -9.229,15.257c-3.628,4.851 -8.361,9.154 -14.198,12.91c-5.837,3.755 -12.778,6.728 -20.823,8.919c-8.046,2.191 -17.747,3.286 -29.106,3.286c-14.513,0 -28.001,-2.582 -40.463,-7.746c-12.463,-5.163 -23.348,-12.831 -32.655,-23.002c-9.308,-10.171 -16.564,-22.612 -21.77,-37.321c-5.206,-14.709 -7.809,-31.609 -7.809,-50.699l0,-8.45c0,-18.778 2.761,-35.521 8.282,-50.231c5.522,-14.709 13.094,-27.149 22.717,-37.32c9.623,-10.171 20.823,-17.917 33.601,-23.238c12.778,-5.32 26.266,-7.98 40.464,-7.98c18.93,-0 33.917,3.521 44.959,10.562c11.043,7.042 19.719,16.978 26.03,29.81l8.518,-0l0,-129.566l59.631,-0l-0,328.609l-59.631,0l0,-33.8Zm-62.47,-15.961c18.615,0 33.68,-5.868 45.196,-17.604c11.516,-11.736 17.274,-27.149 17.274,-46.24l0,-5.633c0,-19.091 -5.758,-34.504 -17.274,-46.24c-11.516,-11.736 -26.581,-17.604 -45.196,-17.604c-18.615,-0 -33.68,5.711 -45.196,17.134c-11.516,11.424 -17.274,26.993 -17.274,46.71l-0,5.633c-0,19.717 5.758,35.287 17.274,46.71c11.516,11.423 26.581,17.134 45.196,17.134Z" style="fill:#ff4f3b;fill-rule:nonzero;"/><path d="M1259.62,161.488c-0,7.511 3.944,12.91 11.831,16.196c7.888,3.286 22.244,6.024 43.067,8.215c23.978,2.504 43.54,9.623 58.684,21.359c15.144,11.736 22.716,28.089 22.716,49.057l0,2.817c0,23.159 -8.518,41.624 -25.556,55.394c-17.037,13.77 -41.015,20.655 -71.935,20.655c-18.299,0 -33.917,-2.347 -46.853,-7.041c-12.935,-4.695 -23.662,-10.563 -32.181,-17.604c-8.519,-7.042 -15.066,-14.866 -19.64,-23.472c-4.575,-8.607 -7.651,-16.979 -9.229,-25.116l54.898,-17.838c2.524,10.014 7.809,18.777 15.854,26.288c8.046,7.511 20.429,11.267 37.151,11.267c14.829,-0 25.004,-2.269 30.525,-6.807c5.522,-4.538 8.282,-9.467 8.282,-14.787c0,-3.13 -0.71,-6.025 -2.129,-8.685c-1.42,-2.66 -4.023,-5.164 -7.809,-7.511c-3.786,-2.347 -8.913,-4.303 -15.381,-5.868c-6.468,-1.565 -14.592,-2.817 -24.373,-3.756c-26.502,-2.19 -47.562,-8.997 -63.18,-20.42c-15.617,-11.423 -23.426,-28.245 -23.426,-50.465l-0,-2.817c-0,-11.58 2.524,-21.751 7.572,-30.514c5.048,-8.763 11.674,-16.195 19.877,-22.298c8.203,-6.103 17.668,-10.719 28.395,-13.849c10.728,-3.129 21.77,-4.694 33.128,-4.694c14.829,-0 27.686,1.799 38.571,5.398c10.885,3.6 20.114,8.294 27.686,14.084c7.572,5.789 13.724,12.205 18.457,19.247c4.732,7.041 8.361,13.848 10.885,20.421l-53.952,21.594c-2.839,-8.45 -7.73,-15.101 -14.671,-19.951c-6.941,-4.851 -15.933,-7.277 -26.976,-7.277c-10.096,0 -17.668,1.8 -22.716,5.399c-5.048,3.599 -7.572,8.059 -7.572,13.379Z" style="fill:#ff4f3b;fill-rule:nonzero;"/><path d="M205.647,95.744l0,53.028c-7.464,0.155 -14.536,1.624 -21.213,4.406c-7.071,2.946 -13.258,7.144 -18.561,12.595c-5.303,5.45 -9.501,12.079 -12.595,19.887c-3.093,7.807 -4.64,16.572 -4.64,26.295l-0,2.651c-0,9.723 1.547,18.341 4.64,25.854c3.094,7.512 7.292,13.773 12.595,18.782c5.303,5.008 11.49,8.765 18.561,11.269c6.677,2.365 13.749,3.613 21.213,3.745l0,53.028c-15.369,-0.218 -29.732,-2.717 -43.088,-7.497c-13.995,-5.009 -26.148,-12.227 -36.46,-21.655c-10.312,-9.428 -18.414,-21.066 -24.306,-34.913c-5.893,-13.847 -8.839,-29.609 -8.839,-47.287l0,-5.303c0,-17.677 2.946,-33.587 8.839,-47.729c5.892,-14.142 14.068,-26.221 24.527,-36.238c10.459,-10.017 22.686,-17.678 36.681,-22.981c13.345,-5.057 27.561,-7.703 42.646,-7.937Z" style="fill:#ff4f3b;fill-rule:nonzero;"/><path d="M0,95.744l0,53.028c7.465,0.155 14.536,1.624 21.213,4.406c7.071,2.946 13.258,7.144 18.561,12.595c5.303,5.45 9.502,12.079 12.595,19.887c3.094,7.807 4.64,16.572 4.64,26.295l0,2.651c0,9.723 -1.546,18.341 -4.64,25.854c-3.093,7.512 -7.292,13.773 -12.595,18.782c-5.303,5.008 -11.49,8.765 -18.561,11.269c-6.677,2.365 -13.748,3.613 -21.213,3.745l0,53.028c15.369,-0.218 29.732,-2.717 43.089,-7.497c13.994,-5.009 26.147,-12.227 36.459,-21.655c10.312,-9.428 18.414,-21.066 24.306,-34.913c5.893,-13.847 8.839,-29.609 8.839,-47.287l0,-5.303c0,-17.677 -2.946,-33.587 -8.839,-47.729c-5.892,-14.142 -14.068,-26.221 -24.527,-36.238c-10.459,-10.017 -22.686,-17.678 -36.68,-22.981c-13.346,-5.057 -27.562,-7.703 -42.647,-7.937Z" style="fill:#ff9260;fill-rule:nonzero;"/></svg>