<svg xmlns="http://www.w3.org/2000/svg" viewBox="0 0 27.84 16.51">
    <defs>
        <style>.cls-1{fill:#ccc;}</style>
    </defs>
    <title>Asset 5</title>
    <g id="Layer_2" data-name="Layer 2">
        <g id="Desktop">
            <path class="cls-1"
                  d="M27.84,13.91a2.65,2.65,0,0,1-1.22,2.23,2.88,2.88,0,0,1-3.4-.45l-9.3-9.3-9.3,9.3a2.9,2.9,0,0,1-3.41.45A2.64,2.64,0,0,1,0,13.91,2.68,2.68,0,0,1,.77,12L12,.77A2.67,2.67,0,0,1,13.86,0H14A2.64,2.64,0,0,1,15.8.77L27.06,12A2.65,2.65,0,0,1,27.84,13.91Z"/>
        </g>
    </g>
</svg>